<mxfile host="app.diagrams.net" agent="Mozilla/5.0 (Windows NT 10.0; Win64; x64) AppleWebKit/537.36 (KHTML, like Gecko) Chrome/131.0.0.0 Safari/537.36" version="26.0.4">
  <diagram name="Page-1" id="B7JUEwTVUSRWYDf5Ve8b">
    <mxGraphModel dx="1434" dy="866" grid="1" gridSize="10" guides="1" tooltips="1" connect="1" arrows="1" fold="1" page="1" pageScale="1" pageWidth="850" pageHeight="1100" math="0" shadow="0">
      <root>
        <mxCell id="0" />
        <mxCell id="1" parent="0" />
        <mxCell id="0LLwLJsET7O2UQmng2dQ-7" value="" style="edgeStyle=orthogonalEdgeStyle;rounded=0;orthogonalLoop=1;jettySize=auto;html=1;" edge="1" parent="1" source="0LLwLJsET7O2UQmng2dQ-4" target="0LLwLJsET7O2UQmng2dQ-6">
          <mxGeometry relative="1" as="geometry" />
        </mxCell>
        <mxCell id="0LLwLJsET7O2UQmng2dQ-9" value="" style="edgeStyle=orthogonalEdgeStyle;rounded=0;orthogonalLoop=1;jettySize=auto;html=1;" edge="1" parent="1" source="0LLwLJsET7O2UQmng2dQ-4" target="0LLwLJsET7O2UQmng2dQ-8">
          <mxGeometry relative="1" as="geometry" />
        </mxCell>
        <mxCell id="0LLwLJsET7O2UQmng2dQ-11" value="" style="edgeStyle=orthogonalEdgeStyle;rounded=0;orthogonalLoop=1;jettySize=auto;html=1;" edge="1" parent="1" source="0LLwLJsET7O2UQmng2dQ-4" target="0LLwLJsET7O2UQmng2dQ-10">
          <mxGeometry relative="1" as="geometry" />
        </mxCell>
        <mxCell id="0LLwLJsET7O2UQmng2dQ-4" value="Sample particle type (p, s, e)" style="whiteSpace=wrap;html=1;aspect=fixed;" vertex="1" parent="1">
          <mxGeometry x="400" y="240" width="80" height="80" as="geometry" />
        </mxCell>
        <mxCell id="0LLwLJsET7O2UQmng2dQ-17" value="" style="edgeStyle=orthogonalEdgeStyle;rounded=0;orthogonalLoop=1;jettySize=auto;html=1;" edge="1" parent="1" source="0LLwLJsET7O2UQmng2dQ-6" target="0LLwLJsET7O2UQmng2dQ-16">
          <mxGeometry relative="1" as="geometry" />
        </mxCell>
        <mxCell id="0LLwLJsET7O2UQmng2dQ-6" value="Primary&lt;div&gt;Photon&lt;/div&gt;" style="whiteSpace=wrap;html=1;aspect=fixed;" vertex="1" parent="1">
          <mxGeometry x="170" y="340" width="80" height="80" as="geometry" />
        </mxCell>
        <mxCell id="0LLwLJsET7O2UQmng2dQ-8" value="Secondary&lt;div&gt;Photon&lt;/div&gt;" style="whiteSpace=wrap;html=1;aspect=fixed;" vertex="1" parent="1">
          <mxGeometry x="400" y="360" width="80" height="80" as="geometry" />
        </mxCell>
        <mxCell id="0LLwLJsET7O2UQmng2dQ-10" value="Electron" style="whiteSpace=wrap;html=1;aspect=fixed;" vertex="1" parent="1">
          <mxGeometry x="600" y="360" width="80" height="80" as="geometry" />
        </mxCell>
        <mxCell id="0LLwLJsET7O2UQmng2dQ-32" value="" style="edgeStyle=orthogonalEdgeStyle;rounded=0;orthogonalLoop=1;jettySize=auto;html=1;" edge="1" parent="1" source="0LLwLJsET7O2UQmng2dQ-16" target="0LLwLJsET7O2UQmng2dQ-18">
          <mxGeometry relative="1" as="geometry" />
        </mxCell>
        <mxCell id="0LLwLJsET7O2UQmng2dQ-33" value="(E, x, y)" style="edgeLabel;html=1;align=center;verticalAlign=middle;resizable=0;points=[];" vertex="1" connectable="0" parent="0LLwLJsET7O2UQmng2dQ-32">
          <mxGeometry x="-0.1667" relative="1" as="geometry">
            <mxPoint as="offset" />
          </mxGeometry>
        </mxCell>
        <mxCell id="0LLwLJsET7O2UQmng2dQ-16" value="Sample candidate&amp;nbsp;&lt;div&gt;(E, x, y) and RNG uniformly&lt;/div&gt;" style="whiteSpace=wrap;html=1;" vertex="1" parent="1">
          <mxGeometry x="150" y="460" width="120" height="60" as="geometry" />
        </mxCell>
        <mxCell id="0LLwLJsET7O2UQmng2dQ-25" value="" style="edgeStyle=orthogonalEdgeStyle;rounded=0;orthogonalLoop=1;jettySize=auto;html=1;" edge="1" parent="1" source="0LLwLJsET7O2UQmng2dQ-18">
          <mxGeometry relative="1" as="geometry">
            <mxPoint x="210" y="690" as="targetPoint" />
          </mxGeometry>
        </mxCell>
        <mxCell id="0LLwLJsET7O2UQmng2dQ-26" value="PDF" style="edgeLabel;html=1;align=center;verticalAlign=middle;resizable=0;points=[];" vertex="1" connectable="0" parent="0LLwLJsET7O2UQmng2dQ-25">
          <mxGeometry x="-0.25" y="-1" relative="1" as="geometry">
            <mxPoint as="offset" />
          </mxGeometry>
        </mxCell>
        <mxCell id="0LLwLJsET7O2UQmng2dQ-18" value="P1" style="whiteSpace=wrap;html=1;" vertex="1" parent="1">
          <mxGeometry x="150" y="580" width="120" height="60" as="geometry" />
        </mxCell>
        <mxCell id="0LLwLJsET7O2UQmng2dQ-37" value="" style="edgeStyle=orthogonalEdgeStyle;rounded=0;orthogonalLoop=1;jettySize=auto;html=1;" edge="1" parent="1" source="0LLwLJsET7O2UQmng2dQ-27" target="0LLwLJsET7O2UQmng2dQ-36">
          <mxGeometry relative="1" as="geometry" />
        </mxCell>
        <mxCell id="0LLwLJsET7O2UQmng2dQ-38" value="True" style="edgeLabel;html=1;align=center;verticalAlign=middle;resizable=0;points=[];" vertex="1" connectable="0" parent="0LLwLJsET7O2UQmng2dQ-37">
          <mxGeometry x="-0.4" y="1" relative="1" as="geometry">
            <mxPoint as="offset" />
          </mxGeometry>
        </mxCell>
        <mxCell id="0LLwLJsET7O2UQmng2dQ-39" value="(E, x, y)" style="edgeLabel;html=1;align=center;verticalAlign=middle;resizable=0;points=[];" vertex="1" connectable="0" parent="0LLwLJsET7O2UQmng2dQ-37">
          <mxGeometry x="0.5556" y="2" relative="1" as="geometry">
            <mxPoint y="-13" as="offset" />
          </mxGeometry>
        </mxCell>
        <mxCell id="0LLwLJsET7O2UQmng2dQ-27" value="if RNG &amp;lt; PDF" style="rhombus;whiteSpace=wrap;html=1;" vertex="1" parent="1">
          <mxGeometry x="155" y="690" width="110" height="100" as="geometry" />
        </mxCell>
        <mxCell id="0LLwLJsET7O2UQmng2dQ-34" value="" style="endArrow=classic;html=1;rounded=0;exitX=0;exitY=0.5;exitDx=0;exitDy=0;entryX=0;entryY=0.5;entryDx=0;entryDy=0;" edge="1" parent="1" source="0LLwLJsET7O2UQmng2dQ-27" target="0LLwLJsET7O2UQmng2dQ-16">
          <mxGeometry width="50" height="50" relative="1" as="geometry">
            <mxPoint x="105" y="735" as="sourcePoint" />
            <mxPoint x="100" y="485" as="targetPoint" />
            <Array as="points">
              <mxPoint x="80" y="740" />
              <mxPoint x="80" y="490" />
            </Array>
          </mxGeometry>
        </mxCell>
        <mxCell id="0LLwLJsET7O2UQmng2dQ-35" value="False" style="edgeLabel;html=1;align=center;verticalAlign=middle;resizable=0;points=[];" vertex="1" connectable="0" parent="0LLwLJsET7O2UQmng2dQ-34">
          <mxGeometry x="-0.8481" relative="1" as="geometry">
            <mxPoint as="offset" />
          </mxGeometry>
        </mxCell>
        <mxCell id="0LLwLJsET7O2UQmng2dQ-41" value="" style="edgeStyle=orthogonalEdgeStyle;rounded=0;orthogonalLoop=1;jettySize=auto;html=1;" edge="1" parent="1" source="0LLwLJsET7O2UQmng2dQ-36" target="0LLwLJsET7O2UQmng2dQ-40">
          <mxGeometry relative="1" as="geometry" />
        </mxCell>
        <mxCell id="0LLwLJsET7O2UQmng2dQ-42" value="(u, v)" style="edgeLabel;html=1;align=center;verticalAlign=middle;resizable=0;points=[];" vertex="1" connectable="0" parent="0LLwLJsET7O2UQmng2dQ-41">
          <mxGeometry x="-0.3667" y="1" relative="1" as="geometry">
            <mxPoint as="offset" />
          </mxGeometry>
        </mxCell>
        <mxCell id="0LLwLJsET7O2UQmng2dQ-36" value="P2" style="whiteSpace=wrap;html=1;" vertex="1" parent="1">
          <mxGeometry x="150" y="910" width="120" height="60" as="geometry" />
        </mxCell>
        <mxCell id="0LLwLJsET7O2UQmng2dQ-40" value="Final E, x, y, u, v" style="whiteSpace=wrap;html=1;" vertex="1" parent="1">
          <mxGeometry x="150" y="1030" width="120" height="60" as="geometry" />
        </mxCell>
      </root>
    </mxGraphModel>
  </diagram>
</mxfile>
